<?xml version="1.0" encoding="utf-8"?>
<!DOCTYPE svg PUBLIC "-//W3C//DTD SVG 1.0//EN" "http://www.w3.org/TR/2001/REC-SVG-20010904/DTD/svg10.dtd">
<svg version="1.0" xmlns="http://www.w3.org/2000/svg" width="500px" height="500px" viewBox="0 0 500 500" preserveAspectRatio="xMidYMid meet">
 <g fill="#000000">
  <path d="M0 250 l0 -250 250 0 250 0 0 250 0 250 -250 0 -250 0 0 -250z m365 126.05 c2.95 -1.50 6.45 -5.30 8.25 -8.90 1.95 -4.05 1.95 -7.35 -0.10 -11.40 -5.50 -10.85 -17.25 -13.45 -25.50 -5.60 -7.20 6.80 -7.25 15.80 -0.05 22.85 3.45 3.40 6.55 4.55 11.40 4.35 2.65 -0.15 4.40 -0.50 6 -1.30z m-113.25 -7.55 c8.55 -0.65 10.80 -1.05 21.80 -3.90 6.15 -1.60 12.25 -3.85 19.85 -7.40 l4.65 -2.15 -2.60 -3.40 c-1.40 -1.85 -2.80 -3.90 -3.10 -4.50 -0.30 -0.65 -0.75 -1.15 -1.10 -1.15 -0.30 0 -2.60 0.85 -5.05 1.90 -13.90 6 -26.75 8.60 -42.65 8.60 -23.45 0 -44 -6.65 -62.55 -20.20 -7.10 -5.20 -17.40 -15.80 -22.65 -23.30 -7.40 -10.55 -12.90 -22.65 -15.80 -34.80 -0.60 -2.45 -1.30 -5.25 -1.55 -6.20 -1.35 -5.20 -1.90 -22.35 -1 -31.75 1.15 -11.70 4.75 -23.75 10.55 -35.35 7.30 -14.55 17.80 -26.95 31.30 -36.95 3.15 -2.35 5.95 -2.70 6.40 -0.80 0.15 0.60 0.35 22.70 0.40 49.10 0.15 32.85 0.35 48.65 0.75 50 0.30 1.10 0.80 3 1.10 4.25 0.25 1.25 0.70 2.70 0.95 3.25 0.25 0.55 0.80 2.10 1.25 3.40 3 9.45 13.95 23.10 23.25 29.05 11.85 7.60 22.80 10.65 36.30 10.15 14.95 -0.60 28.60 -6.50 39.70 -17.10 19.25 -18.50 24.30 -47.25 12.70 -72.30 -5.05 -10.80 -13.65 -20.30 -23.95 -26.35 -4.05 -2.40 -12.15 -5.40 -16.20 -6.10 -2.05 -0.30 -4.85 -0.80 -6.15 -1.05 -3.05 -0.55 -6.15 -0.55 -9.20 0 -1.30 0.25 -4.10 0.75 -6.15 1.05 -2.05 0.35 -4.05 0.80 -4.50 1 -0.40 0.25 -1.85 0.80 -3.25 1.30 -3.55 1.20 -9.10 4.05 -11.90 6 -1.70 1.25 -2.90 1.70 -4.30 1.70 l-2 0 -0.25 -24.10 c-0.15 -13.30 -0.30 -25.15 -0.40 -26.40 l-0.15 -2.25 3.50 -0.85 c8.30 -1.95 14.60 -2.50 26 -2.30 11.65 0.25 17.50 0.95 25.75 3.10 28.05 7.30 52.10 26.85 65.40 53.15 1.65 3.25 3.70 8.05 4.60 10.65 0.90 2.60 1.80 5.20 2 5.75 0.35 0.90 1.15 4.15 2.95 11.85 1 4.30 1.65 16.90 1.35 24.40 -0.20 4 -0.85 10.20 -1.50 13.75 -1.10 6.30 -4.20 17.15 -6.30 21.95 -0.55 1.30 -1 2.45 -1 2.55 0 0.10 1.30 0.90 2.85 1.75 1.60 0.90 3.75 2.30 4.75 3.15 1.05 0.85 1.95 1.40 2.05 1.30 0.30 -0.40 3.30 -7.65 4.65 -11.20 2.15 -5.85 3.55 -10.85 4.45 -16.05 0.45 -2.70 0.90 -5.05 1 -5.20 0.45 -0.75 1.30 -12.60 1.25 -17.85 -0.15 -22.25 -6.95 -44.20 -19.45 -62.90 -6.10 -9.15 -11.20 -15.05 -18.85 -22 -14.55 -13.10 -29.50 -21.30 -48.70 -26.70 -2.05 -0.60 -4.40 -1.30 -5.25 -1.55 -0.80 -0.25 -5.20 -0.95 -9.75 -1.55 -6.80 -0.90 -9.70 -1.05 -16.50 -0.80 -8.10 0.30 -18.80 1.45 -21.75 2.35 -0.80 0.25 -4.40 1.30 -8 2.30 -26.40 7.55 -49.60 24.80 -65.05 48.20 -8.55 13.05 -14.50 27.30 -17.15 41.35 -2.75 14.50 -2.75 30.10 0 44.15 1.10 5.60 2.65 11.30 3.70 13.75 0.35 0.85 1.15 3.10 1.80 5 1.60 4.85 7.80 16.90 11.65 22.70 12.80 19.10 30.95 34.35 51.55 43.15 8.05 3.45 11 4.45 18 6.10 3.05 0.75 6.30 1.55 7.30 1.80 1.55 0.40 7.35 1.15 13.70 1.65 4.25 0.35 7.75 0.35 14.50 -0.15z m75.50 -18.25 c5.65 -1.60 12.65 -7.75 15.30 -13.50 0.75 -1.65 1.65 -4.40 2 -6.15 2.35 -11.45 -7.75 -24.65 -20.65 -27.05 -7.25 -1.30 -16.55 2.75 -21.80 9.55 -2.35 3.10 -3.60 5.75 -4.85 10.70 -0.90 3.50 -0.90 3.60 0.20 7.65 0.55 2.25 1.65 5.25 2.35 6.60 3.90 7.70 13.90 13.80 21.70 13.15 1.80 -0.15 4.40 -0.55 5.75 -0.95z"/>
  <path d="M237.95 288.85 c-14.70 -5 -22.80 -18.65 -21.75 -36.70 0.55 -9.30 3.50 -17 8.80 -22.75 3.25 -3.60 9 -7.35 13.25 -8.75 3.20 -1 15.35 -1.45 19.50 -0.70 6.50 1.20 13.75 5.70 17.90 11.15 4.95 6.50 6.75 11.75 7.20 21.20 0.60 13.05 -2.50 22.35 -9.95 29.50 -3.70 3.55 -6.90 5.40 -12.35 7.20 -4.25 1.35 -5.20 1.50 -11.20 1.50 -6.10 -0.05 -6.95 -0.15 -11.40 -1.65z"/>
 </g>
 <g fill="#ffffff">
  <path d="M355.25 379 c-7.15 -1.05 -12.60 -6.30 -14.45 -13.85 -0.80 -3.20 -0.80 -3.75 -0.05 -6.90 1 -4.30 2.45 -6.85 5.60 -9.80 3.60 -3.40 7.20 -4.60 12.90 -4.35 3.65 0.20 5 0.45 7.15 1.60 3.40 1.70 6.30 4.75 8.25 8.55 1.40 2.65 1.55 3.50 1.55 7.25 0 3.70 -0.20 4.65 -1.45 7.15 -1.75 3.55 -5.30 7.40 -8.05 8.80 -1.70 0.80 -7.75 2.20 -8.70 2 -0.15 -0.05 -1.35 -0.25 -2.75 -0.45z"/>
  <path d="M233.95 370.30 c-0.10 -0.15 -2.45 -0.45 -5.20 -0.75 -2.75 -0.35 -5.80 -0.80 -6.75 -1.05 -0.95 -0.25 -4.20 -1.05 -7.25 -1.80 -7 -1.65 -9.95 -2.65 -18 -6.10 -20.60 -8.80 -38.75 -24.05 -51.55 -43.15 -3.85 -5.80 -10.05 -17.85 -11.65 -22.70 -0.65 -1.90 -1.45 -4.15 -1.80 -5 -1.05 -2.45 -2.60 -8.15 -3.70 -13.75 -2.80 -14.30 -2.80 -32.40 0 -47.15 1.30 -6.85 2.25 -10.15 5.15 -17.90 13.05 -34.70 42 -61.60 77.05 -71.65 3.60 -1 7.20 -2.05 8 -2.30 3.50 -1.10 13.70 -2.10 23.05 -2.35 8.40 -0.20 11.40 -0.05 18.25 0.80 4.50 0.60 8.90 1.30 9.70 1.55 0.85 0.25 3.20 0.95 5.25 1.55 11.60 3.25 22.15 7.80 31 13.30 15.25 9.55 26.70 20.65 36.55 35.40 12.30 18.40 18.95 39.60 19.70 62.75 0.10 4.55 -0.90 18.90 -1.50 21 -0.15 0.40 -0.60 2.80 -1 5.25 -0.40 2.50 -1.25 6.10 -1.80 8 -1.80 6.15 -6.90 19.20 -8.05 20.60 -0.35 0.45 -1.30 -0.10 -3.60 -2.05 -1.75 -1.45 -4.50 -3.30 -6.20 -4.10 -1.65 -0.80 -3.05 -1.70 -3.05 -2 -0.05 -0.30 0.60 -2 1.40 -3.80 2.35 -5.15 5.60 -16.10 6.85 -23 1.80 -10.30 2 -22.40 0.50 -32.65 -0.65 -4.25 -2.50 -12.55 -3.30 -14.50 -0.20 -0.55 -1.10 -3.15 -2 -5.75 -3.45 -10.15 -11 -22.90 -18.70 -31.65 -16.40 -18.65 -37.25 -30.35 -61.05 -34.20 -7.60 -1.25 -22.70 -1.45 -29.75 -0.40 -8.60 1.25 -12.80 2.35 -12.50 3.25 0.15 0.40 0.30 11.60 0.40 24.90 0.10 14.65 0.35 24.10 0.65 24.10 0.25 0 1.50 -0.75 2.80 -1.70 2.80 -1.95 8.35 -4.80 11.90 -6 1.40 -0.50 2.85 -1.05 3.25 -1.30 0.45 -0.20 2.45 -0.65 4.50 -1 2.05 -0.30 4.85 -0.80 6.15 -1.05 3.10 -0.60 9.10 -0.60 12.20 0 1.30 0.25 4.10 0.75 6.15 1.05 4.05 0.70 12.15 3.70 16.20 6.10 10.30 6.05 18.90 15.55 23.95 26.35 4.65 10.05 6.60 20.05 6.20 31.80 -0.75 21 -10.70 39.35 -27.35 50.35 -10.60 7 -19.80 9.85 -32.75 10.25 -15.30 0.45 -25.60 -2.30 -37.80 -10.15 -9.30 -5.95 -20.25 -19.60 -23.25 -29.05 -0.45 -1.30 -1 -2.85 -1.25 -3.40 -0.25 -0.55 -0.70 -2 -0.95 -3.25 -0.30 -1.25 -0.80 -3.15 -1.10 -4.25 -0.40 -1.35 -0.65 -17.85 -0.85 -50.85 -0.15 -26.85 -0.45 -48.95 -0.65 -49.15 -0.60 -0.60 -7.65 4.95 -14.35 11.40 -19.55 18.70 -31 45.55 -31.05 72.85 0 5.95 0.80 15.85 1.50 18.50 0.25 0.95 0.95 3.75 1.55 6.20 4.35 18.20 13.45 34.30 26.95 47.85 16.85 16.90 35.95 26.40 59.75 29.65 13.50 1.85 31.75 0.15 44.25 -4.05 4.65 -1.55 14.40 -5.60 15.75 -6.50 0.55 -0.35 1.10 -0.65 1.30 -0.65 0.15 0 1.20 1.50 2.25 3.30 1.05 1.80 3.15 4.55 4.60 6.10 2 2.10 2.50 2.85 2 3.20 -0.35 0.25 -2.90 1.55 -5.65 2.90 -12.90 6.15 -25.15 9.70 -39.50 11.40 -3.90 0.45 -21.40 0.75 -21.80 0.40z m25.10 -82.80 c5.45 -1.80 8.65 -3.65 12.35 -7.20 7.15 -6.85 10.70 -16.85 9.95 -28 -0.95 -13.65 -7.35 -23.40 -19.05 -28.85 -4.25 -2 -8.05 -2.60 -14.55 -2.30 -6.55 0.30 -9.20 1.05 -14.35 4.15 -17 10.10 -21.05 36.25 -8.15 52.25 3.80 4.65 8.25 7.75 14.20 9.80 4.15 1.40 5.50 1.60 9.90 1.65 4.30 0 5.75 -0.20 9.70 -1.50z"/>
  <path d="M313.25 351.85 c-6.25 -2.05 -12.30 -7 -14.95 -12.25 -1.65 -3.25 -3.30 -9.45 -3.30 -12.35 0 -4.65 2.50 -11.60 5.60 -15.60 9.45 -12.30 27.40 -13.35 38.30 -2.30 1.85 1.85 3.95 4.55 4.70 5.95 3.80 7.05 3.85 16.45 0.15 23.70 -2.65 5.25 -9.60 11.15 -14.95 12.80 -1.40 0.40 -4.70 0.85 -7.30 0.95 -4 0.20 -5.30 0.05 -8.25 -0.90z"/>
 </g>
</svg>